<?xml version="1.0" encoding="UTF-8" standalone="no"?>
<!-- Created with Inkscape (http://www.inkscape.org/) -->

<svg
   xmlns:dc="http://purl.org/dc/elements/1.1/"
   xmlns:cc="http://creativecommons.org/ns#"
   xmlns:rdf="http://www.w3.org/1999/02/22-rdf-syntax-ns#"
   xmlns:svg="http://www.w3.org/2000/svg"
   xmlns="http://www.w3.org/2000/svg"
   xmlns:sodipodi="http://sodipodi.sourceforge.net/DTD/sodipodi-0.dtd"
   xmlns:inkscape="http://www.inkscape.org/namespaces/inkscape"
   id="svg3075"
   version="1.1"
   inkscape:version="0.48.4 r9939"
   width="890"
   height="889"
   sodipodi:docname="moonstar2.png">
  <metadata
     id="metadata3081">
    <rdf:RDF>
      <cc:Work
         rdf:about="">
        <dc:format>image/svg+xml</dc:format>
        <dc:type
           rdf:resource="http://purl.org/dc/dcmitype/StillImage" />
        <dc:title></dc:title>
      </cc:Work>
    </rdf:RDF>
  </metadata>
  <defs
     id="defs3079" />
  <sodipodi:namedview
     pagecolor="#ffffff"
     bordercolor="#666666"
     borderopacity="1"
     objecttolerance="10"
     gridtolerance="10"
     guidetolerance="10"
     inkscape:pageopacity="0"
     inkscape:pageshadow="2"
     inkscape:window-width="640"
     inkscape:window-height="480"
     id="namedview3077"
     showgrid="false"
     inkscape:zoom="0.26546682"
     inkscape:cx="445"
     inkscape:cy="444.5"
     inkscape:window-x="53"
     inkscape:window-y="24"
     inkscape:window-maximized="0"
     inkscape:current-layer="svg3075" />
  <g
     id="g3472">
    <path
       style="fill:#ffffff"
       d="M 0,444.5 0,0 445,0 890,0 890,444.5 890,889 445,889 0,889 0,444.5 z"
       id="path3476"
       inkscape:connector-curvature="0" />
    <path
       style="fill:#fef500"
       d="M 404.5,887.52767 C 286.97204,875.25677 180.31014,816.76877 104.45925,723.00045 93.977871,710.04317 91.989952,706.25214 92.021962,699.28212 92.077055,687.28599 101.65794,678.01301 114,678.01042 c 2.04513,-4.3e-4 7.65676,1.91172 13.5,4.60009 48.24838,22.19823 85.11563,32.72608 131.5,37.55125 18.31307,1.90504 61.92504,1.61029 80.5,-0.54405 78.28908,-9.08004 146.28174,-38.0918 208.5,-88.9648 13.30927,-10.88237 44.50011,-42.78259 56.37086,-57.65291 52.66935,-65.97813 82.84411,-141.393 92.8271,-232 1.95397,-17.73455 1.61777,-71.87253 -0.56202,-90.5 -9.14875,-78.18101 -33.86062,-143.81748 -77.5806,-206.059524 -10.5138,-14.967999 -12.64643,-19.935948 -11.50596,-26.803099 0.94419,-5.685289 2.63958,-8.671923 7.32622,-12.9060217 4.4855,-4.05238142 8.62652,-5.18615946 16.5439,-4.52958887 5.93203,0.49193019 20.04954,7.75322197 41.82023,21.51008557 C 717.48325,49.669265 759.12521,88.134122 792,131.41123 879.23583,246.25042 910.32686,396.5292 875.91188,537 849.83044,643.45597 786.3055,739.39957 699,804.19526 c -60.08355,44.59232 -126.65969,71.66659 -201.48188,81.93587 -19.54417,2.68242 -73.01349,3.48518 -93.01812,1.39654 z M 141.59506,554.73355 c -8.50447,-4.8644 -8.47381,-4.78289 -22.32268,-59.33658 L 106.58237,445.40828 59.541185,428.0997 C 33.668533,418.57998 10.856824,409.73607 8.8484981,408.44656 6.4703872,406.91961 4.2435596,404.15323 2.4629771,400.51386 0.09417239,395.67219 -0.19694295,394.10854 0.28366854,388.80828 1.2563396,378.08149 1.3491622,378.00399 50.04753,347.2624 l 43.54753,-27.49004 1.764171,-48.63618 c 0.970294,-26.7499 2.2006,-50.91337 2.734012,-53.6966 1.151862,-6.01018 5.417107,-11.63897 10.963647,-14.4686 4.98945,-2.54543 14.19976,-2.64419 18.98685,-0.20359 1.90665,0.97206 20.81368,16.19441 42.01563,33.82745 l 38.54899,32.06007 48.94582,-13.81544 C 284.47438,247.24099 308.075,241.02852 310,241.03398 c 3.77181,0.0107 11.28031,3.02535 14.37375,5.77101 2.93203,2.60239 6.60558,11.24718 6.61648,15.57023 0.007,2.69885 -5.77155,18.46004 -19.03512,51.92069 l -19.04489,48.04547 28.00216,42.07931 c 15.40118,23.14362 28.47139,43.3461 29.04489,44.89441 2.83462,7.65273 0.11481,17.7804 -6.28371,23.39837 -6.67173,5.85786 -6.52237,5.85184 -59.30161,2.39075 C 258.04238,473.37762 234.925,471.9787 233,471.9955 c -3.40817,0.0298 -4.33572,1.09181 -35.35123,40.47732 -35.38193,44.9303 -34.97864,44.54188 -46.21449,44.51073 -4.28643,-0.0119 -7.01862,-0.63667 -9.83922,-2.25 z"
       id="path3474"
       inkscape:connector-curvature="0" />
  </g>
</svg>
